<?xml version="1.0" standalone="no"?><!DOCTYPE svg PUBLIC "-//W3C//DTD SVG 1.1//EN"
        "http://www.w3.org/Graphics/SVG/1.1/DTD/svg11.dtd">
<svg t="1566809499392" class="icon" viewBox="0 0 1024 1024" version="1.1" xmlns="http://www.w3.org/2000/svg" p-id="2255"
     width="48" height="48">
    <defs>
        <style type="text/css"></style>
    </defs>
    <path d="M581.615521 953.378569c-145.446603 0-263.771499-118.324896-263.771499-263.771499V622.193705c0-18.796088 15.239076-34.035164 34.035164-34.035164s34.035164 15.239076 34.035164 34.035164v67.413365c0 107.912755 87.796602 195.701171 195.701171 195.701171s195.701171-87.788415 195.70117-195.701171c0-18.796088 15.239076-34.035164 34.035164-34.035164s34.035164 15.239076 34.035165 34.035164c0 145.446603-118.324896 263.771499-263.771499 263.771499z"
          fill="#ffffff" p-id="2256" data-spm-anchor-id="a313x.7781069.0.i1" class=""></path>
    <path d="M814.060547 722.960713c-79.753415 0-144.648424-64.887846-144.648424-144.648425s64.896032-144.648424 144.648424-144.648424 144.648424 64.887846 144.648424 144.648424-64.896032 144.648424-144.648424 144.648425z m0-204.209962c-32.838919 0-59.561537 26.722618-59.561537 59.561537 0 32.838919 26.722618 59.561537 59.561537 59.561538 32.838919 0 59.561537-26.722618 59.561537-59.561538 0-32.837896-26.723641-59.561537-59.561537-59.561537z"
          fill="#00D8A0" p-id="2257"></path>
    <path d="M354.587877 649.216151c-159.52218 0-289.297872-129.774669-289.297872-289.297872V104.655572c0-18.796088 15.239076-34.035164 34.035165-34.035165h102.105492c18.796088 0 34.035164 15.239076 34.035164 34.035165s-15.239076 34.035164-34.035164 34.035164h-68.070328v221.227543c0 121.989355 99.246375 221.227544 221.227543 221.227544s221.227544-99.238189 221.227544-221.227544V138.690736h-68.070328c-18.796088 0-34.035164-15.239076-34.035164-34.035164s15.239076-34.035164 34.035164-34.035165h102.105492c18.796088 0 34.035164 15.239076 34.035164 34.035165v255.262707c0 159.52218-129.775692 289.297872-289.297872 289.297872z"
          fill="#ffffff" p-id="2258" data-spm-anchor-id="a313x.7781069.0.i0" class=""></path>
</svg>